<?xml version="1.0" encoding="UTF-8"?>
<!DOCTYPE svg PUBLIC "-//W3C//DTD SVG 1.1//EN" "http://www.w3.org/Graphics/SVG/1.1/DTD/svg11.dtd">
<!-- Creator: CorelDRAW -->
<svg xmlns="http://www.w3.org/2000/svg" xml:space="preserve" width="400.2mm" height="400.2mm" version="1.1" style="shape-rendering:geometricPrecision; text-rendering:geometricPrecision; image-rendering:optimizeQuality; fill-rule:evenodd; clip-rule:evenodd"
viewBox="0 0 308668.46 308668.46"
 xmlns:xlink="http://www.w3.org/1999/xlink"
 xmlns:xodm="http://www.corel.com/coreldraw/odm/2003">
 <defs>
  <style type="text/css">
   <![CDATA[
    .str2 {stroke:#2B2A29;stroke-width:80rem;stroke-miterlimit:22.9256}
    .str1 {stroke:#2B2A29;stroke-width:90rem;stroke-miterlimit:22.9256}
    .str0 {stroke:#1F1B20;stroke-width:154.26;stroke-miterlimit:22.9256}
    .fil2 {fill:none}
    .fil3 {fill:#FEFEFE}
    .fil0 {fill:#FFFCEB}
    .fil1 {fill:#FFDC0C}
    .fil4 {fill:#1F1B20}
    .fil5 {fill:#1F1B20;fill-rule:nonzero}
   ]]>
  </style>
 </defs>
 <g id="Layer_x0020_1">
  <metadata id="CorelCorpID_0Corel-Layer"/>
  <path class="fil0 str0" d="M30928.39 77.13l246811.67 0c16968.2,0 30851.27,13883.06 30851.27,30851.34l0 246811.52c0,16968.28 -13883.06,30851.34 -30851.27,30851.34l-246811.67 0c-16968.2,0 -30851.27,-13883.06 -30851.27,-30851.34l0 -246811.52c0,-16968.28 13883.06,-30851.34 30851.27,-30851.34z"/>
  <g id="_1378457024">
   <polygon class="fil1 str1" points="132884.47 104081.59 210370.28 104081.59 210370.28 151791.38 132884.47 151791.38 "/>
   <polygon class="fil1 str1" points="97953.03 69383.61 132884.47 69383.61 132884.47 104081.59 97953.03 104081.59 "/>
   <polygon class="fil1 str1" points="210334.96 135209.82 210334.96 140671.37 237727.4 144447.82 232954.22 129230.28 "/>
   <line class="fil2 str2" x1="97953.03" y1="69383.61" x2="138875.59" y2= "44445.79" />
   <polyline class="fil2 str1" points="147255.14 151791.38 147255.14 187033.57 125468.56 187033.57 "/>
   <polyline class="fil2 str1" points="194179.77 151791.38 194179.77 190598.3 167365.72 190598.3 "/>
   <path class="fil3 str1" d="M104995.1 75086.26c3418.34,0 6189.57,2771.15 6189.57,6189.57 0,3418.34 -2771.23,6189.57 -6189.57,6189.57 -3418.41,0 -6189.57,-2771.23 -6189.57,-6189.57 0,-3418.41 2771.15,-6189.57 6189.57,-6189.57z"/>
   <path class="fil4 str1" d="M102084.27 77868.91c1835.43,0 3323.39,1487.96 3323.39,3323.47 0,1835.43 -1487.96,3323.39 -3323.39,3323.39 -1835.51,0 -3323.47,-1487.96 -3323.47,-3323.39 0,-1835.51 1487.96,-3323.47 3323.47,-3323.47z"/>
   <polygon class="fil3 str1" points="98001.62 91537.55 97841.89 103877.89 62285.55 104225.66 "/>
  </g>
  <g id="_1378470752">
   <polygon class="fil3 str1" points="262695.76,271805.1 262604.44,264162.51 265155.31,264162.51 265064.07,256519.92 267614.94,256519.92 267523.62,248877.41 257320.13,248877.41 257594.01,271805.1 "/>
   <polygon class="fil3 str1" points="241533.77,271805.1 241472.91,266710.07 244023.71,266710.07 243962.85,261614.96 246513.73,261614.96 246452.87,256519.92 249003.74,256519.92 248942.89,251424.96 246392.02,251424.96 246361.55,248877.41 243810.68,248877.41 243871.53,253972.36 241320.74,253972.36 241381.59,259067.48 238830.72,259067.48 238891.57,264162.51 236340.7,264162.51 236279.85,259067.48 233728.97,259067.48 233668.12,253972.36 231117.25,253972.36 231056.39,248877.41 228505.52,248877.41 228535.99,251424.96 225985.11,251424.96 226045.97,256519.92 228596.84,256519.92 228657.69,261614.96 231208.57,261614.96 231269.42,266710.07 233820.29,266710.07 233881.15,271805.1 "/>
   <polygon class="fil3 str1" points="207495.7,261614.96 207434.85,256519.92 220189.21,256519.92 220250.07,261614.96 "/>
   <polygon class="fil3 str1" points="201760.58,271805.1 201699.72,266710.07 188945.44,266710.07 188884.58,261614.96 199088.07,261614.96 199057.61,259067.48 188854.12,259067.48 188793.26,253972.36 201547.55,253972.36 201486.69,248877.41 183630.66,248877.41 183904.55,271805.1 "/>
   <polygon class="fil3 str1" points="167844.3,271805.1 167631.27,253972.36 175283.81,253972.36 175222.96,248877.41 154816.05,248877.41 154876.91,253972.36 162529.53,253972.36 162651.23,264162.51 160100.36,264162.51 160191.68,271805.1 "/>
   <polygon class="fil3 str1" points="136357.11,261614.96 136296.25,256519.92 149050.62,256519.92 149111.47,261614.96 "/>
   <polygon class="fil3 str1" points="130621.98,271805.1 130530.66,264162.51 127979.79,264162.51 127797.23,248877.41 122695.56,248877.41 122786.88,256519.92 120236.01,256519.92 120266.4,259067.48 117715.52,259067.48 117685.13,256519.92 115134.26,256519.92 115042.94,248877.41 109941.2,248877.41 110123.76,264162.51 107572.89,264162.51 107664.21,271805.1 112765.95,271805.1 112674.63,264162.51 115225.51,264162.51 115255.97,266710.07 117806.84,266710.07 117837.23,269257.55 120388.1,269257.55 120357.72,266710.07 122908.59,266710.07 122878.12,264162.51 125428.92,264162.51 125520.24,271805.1 "/>
   <polygon class="fil3 str1" points="99256.5,271805.1 99195.65,266710.07 86441.36,266710.07 86380.51,261614.96 96584,261614.96 96553.53,259067.48 86350.04,259067.48 86289.19,253972.36 99043.47,253972.36 98982.62,248877.41 81126.59,248877.41 81400.47,271805.1 "/>
   <polygon class="fil3 str1" points="67891.1,271805.1 67860.63,269257.55 70411.43,269257.55 70381.04,266710.07 72931.91,266710.07 72871.06,261614.96 70320.18,261614.96 70289.72,259067.48 67738.92,259067.48 67708.53,256519.92 70259.33,256519.92 70198.47,251424.96 67647.68,251424.96 67617.21,248877.41 52311.98,248877.41 52585.86,271805.1 "/>
   <polygon class="fil3 str1" points="57535.43,259067.48 57474.58,253972.36 65127.19,253972.36 65188.05,259067.48 "/>
   <polygon class="fil3 str1" points="57626.75,266710.07 57565.9,261614.96 65218.51,261614.96 65279.37,266710.07 "/>
   <path class="fil5" d="M57944.06 266712.3l-60.85 -5095.11 7652.62 0 60.85 5095.11 -7652.62 0zm-91.32 -7642.59l-60.85 -5095.11 7652.62 0 60.85 5095.11 -7652.62 0zm10355.66 12737.63l-30.47 -2547.56 2550.8 0 -30.39 -2547.48 2550.87 0 -60.85 -5095.11 -2550.87 0 -30.47 -2547.48 -2550.8 0 -30.39 -2547.56 2550.8 0 -60.85 -5094.96 -2550.8 0 -30.47 -2547.56 -15305.24 0 273.88 22927.7 15305.24 0zm-17795.25 5095.03l-365.13 -30570.29 20406.9 0 30.39 2547.56 2550.87 0 121.71 10190.07 2550.87 0 152.17 12737.63 -2550.87 0 30.47 2547.56 -2550.87 0 30.39 2547.48 -20406.9 0zm49160.66 -5095.03l-60.85 -5095.03 -12754.29 0 -60.85 -5095.11 10203.49 0 -30.47 -2547.48 -10203.49 0 -60.85 -5095.11 12754.29 0 -60.85 -5094.96 -17856.03 0 273.88 22927.7 17856.03 0zm-20346.05 5095.03l-365.13 -30570.29 22957.78 0 121.71 10190.07 -2550.87 0 91.24 7642.59 2550.87 0 152.17 12737.63 -22957.78 0zm51711.53 -5095.03l-91.32 -7642.59 -2550.87 0 -182.56 -15285.1 -5101.67 0 91.32 7642.51 -2550.87 0 30.39 2547.56 -2550.87 0 -30.39 -2547.56 -2550.87 0 -91.32 -7642.51 -5101.75 0 182.56 15285.1 -2550.87 0 91.32 7642.59 5101.75 0 -91.32 -7642.59 2550.87 0 30.47 2547.56 2550.87 0 30.39 2547.48 2550.87 0 -30.39 -2547.48 2550.87 0 -30.47 -2547.56 2550.8 0 91.32 7642.59 5101.75 0zm-25447.79 5095.03l-182.56 -15285.18 2550.87 0 -182.56 -15285.1 10203.49 0 91.24 7642.51 2550.87 0 -91.24 -7642.51 10203.41 0 182.56 15285.1 2550.87 0 182.56 15285.18 -10203.41 0 -30.39 -2547.48 -7652.62 0 30.39 2547.48 -10203.49 0zm31182.92 -15285.18l-60.85 -5095.03 12754.36 0 60.85 5095.03 -12754.36 0zm31487.19 10190.15l-213.03 -17832.74 7652.54 0 -60.85 -5094.96 -20406.9 0 60.85 5094.96 7652.62 0 121.71 10190.15 -2550.87 0 91.32 7642.59 7652.62 0zm-10142.64 5095.03l-182.56 -15285.18 2550.87 0 -30.47 -2547.48 -7652.62 0 -152.1 -12737.63 25508.65 0 152.1 12737.63 -7652.54 0 213.03 17832.66 -12754.36 0zm44058.91 -5095.03l-60.85 -5095.03 -12754.29 0 -60.85 -5095.11 10203.49 0 -30.47 -2547.48 -10203.49 0 -60.85 -5095.11 12754.29 0 -60.85 -5094.96 -17856.03 0 273.88 22927.7 17856.03 0zm-20346.05 5095.03l-365.13 -30570.29 22957.78 0 121.71 10190.07 -2550.87 0 91.24 7642.59 2550.87 0 152.17 12737.63 -22957.78 0zm26081.17 -15285.18l-60.85 -5095.03 12754.36 0 60.85 5095.03 -12754.36 0zm34038.06 10190.15l-60.85 -5095.03 2550.8 0 -60.85 -5095.11 2550.87 0 -60.85 -5095.03 2550.87 0 -60.85 -5094.96 -2550.87 0 -30.47 -2547.56 -2550.87 0 60.85 5094.96 -2550.8 0 60.85 5095.11 -2550.87 0 60.85 5095.03 -2550.87 0 -60.85 -5095.03 -2550.87 0 -60.85 -5095.11 -2550.87 0 -60.85 -5094.96 -2550.87 0 30.47 2547.56 -2550.87 0 60.85 5094.96 2550.87 0 60.85 5095.03 2550.87 0 60.85 5095.11 2550.87 0 60.85 5095.03 7652.62 0zm-10142.64 5095.03l-60.85 -5095.03 -2550.87 0 -60.85 -5095.03 -2550.87 0 -60.85 -5095.11 -2550.87 0 -152.17 -12737.55 2550.87 0 -30.39 -2547.56 7652.62 0 60.85 5095.11 2550.87 0 60.85 5094.96 2550.87 0 -60.85 -5094.96 2550.87 0 -60.85 -5095.11 7652.54 0 30.39 2547.56 2550.87 0 152.17 12737.55 -2550.87 0 60.85 5095.11 -2550.87 0 60.85 5095.03 -2550.87 0 60.85 5095.03 -12754.29 0zm31304.63 -5095.03l-91.32 -7642.59 2550.87 0 -91.24 -7642.59 2550.87 0 -91.32 -7642.51 -10203.49 0 273.88 22927.7 5101.75 0zm-7591.76 5095.03l-365.13 -30570.29 15305.24 0 182.56 15285.1 -2550.87 0 91.24 7642.59 -2550.87 0 91.32 7642.59 -10203.49 0z"/>
  </g>
 </g>
</svg>
